{"title":"2;22-AC3-5,1-DVDRip[Eng]2008","uid":5103138,"size":1488931388,"categoryP":"video","categoryS":"movies","magnet":"?xt=urn:btih:6f7f28a53d3395f4080ca4149f16da32cc39590c&amp;dn=2%3B22-AC3-5%2C1-DVDRip%5BEng%5D2008&amp;tr=udp%3A%2F%2Ftracker.openbittorrent.com%3A80&amp;tr=udp%3A%2F%2Fopen.demonii.com%3A1337&amp;tr=udp%3A%2F%2Ftracker.coppersurfer.tk%3A6969&amp;tr=udp%3A%2F%2Fexodus.desync.com%3A6969","seeders":0,"leechers":0,"uploader":"FatFreddy31","files":-1,"time":1254156463,"description":" &lt;a href=&quot;http://www.imdb.com/title/tt1261041/&quot; rel=&quot;nofollow&quot; target=&quot;_NEW&quot;&gt;http://www.imdb.com/title/tt1261041/&lt;/a&gt;\n &lt;a href=&quot;\nhttp://www.222themovie.com/&quot; rel=&quot;nofollow&quot; target=&quot;_NEW&quot;&gt;\nhttp://www.222themovie.com/&lt;/a&gt;\n\nUser Rating:8.0/10 - 36 votes\n\nCrime\n\nDirector:Phillip Guzman\n\nCast:Val Kilmer/Mick Rossi/Robert Miano/Aaron Gallagher, and others.\n\nPlot:\nThe plan was easy; the job was not. On a snowy night a tight crew of four criminals plan to pull off a routine heist. When things go horribly wrong, friendship, loyalty and trust are pushed to the limit..\n\nInfo:\n\nGeneral\nComplete name                    : 2;22-AC3-5,1-DVDRip[Eng]2008.avi\nFormat                           : AVI\nFormat/Info                      : Audio Video Interleave\nFile size                        : 1.39 GiB\nDuration                         : 1h 44mn\nOverall bit rate                 : 1 901 Kbps\nWriting application              : VirtualDubMod 1.5.4.1 (build 2178/release)\nWriting library                  : VirtualDubMod build 2178/release\n\nVideo\nFormat                           : MPEG-4 Visual\nFormat profile                   : Streaming Video@L1\nFormat settings, BVOP            : Yes\nFormat settings, QPel            : No\nFormat settings, GMC             : No warppoints\nFormat settings, Matrix          : Default\nMuxing mode                      : Packed bitstream\nCodec ID                         : XVID\nCodec ID/Hint                    : XviD\nDuration                         : 1h 44mn\nBit rate                         : 1 510 Kbps\nWidth                            : 704 pixels\nHeight                           : 400 pixels\nDisplay aspect ratio             : 16/9\nFrame rate                       : 25.000 fps\nResolution                       : 24 bits\nColorimetry                      : 4:2:0\nScan type                        : Progressive\nBits/(Pixel*Frame)               : 0.214\nStream size                      : 1.10 GiB (79%)\nWriting library                  : XviD 50\n\nAudio\nFormat                           : AC-3\nFormat/Info                      : Audio Coding 3\nCodec ID                         : 2000\nDuration                         : 1h 44mn\nBit rate mode                    : Constant\nBit rate                         : 384 Kbps\nChannel(s)                       : 6 channels\nChannel positions                : Front: L C R, Surround: L R, LFE\nSampling rate                    : 48.0 KHz\nStream size                      : 287 MiB (20%)\nAlignment                        : Split accross interleaves\nInterleave, duration             : 80 ms (2.00 video frames)\nInterleave, preload duration     : 500 ms\nLanguage                         : English\n\nEnjoy...","torrent":{"xt":"urn:btih:6f7f28a53d3395f4080ca4149f16da32cc39590c","amp;dn":"2%3B22-AC3-5%2C1-DVDRip%5BEng%5D2008","amp;tr":["udp%3A%2F%2Ftracker.openbittorrent.com%3A80","udp%3A%2F%2Fopen.demonii.com%3A1337","udp%3A%2F%2Ftracker.coppersurfer.tk%3A6969","udp%3A%2F%2Fexodus.desync.com%3A6969"],"infoHash":"6f7f28a53d3395f4080ca4149f16da32cc39590c","infoHashBuffer":{"type":"Buffer","data":[111,127,40,165,61,51,149,244,8,12,164,20,159,22,218,50,204,57,89,12]},"announce":[],"urlList":[]}}